<svg xmlns="http://www.w3.org/2000/svg" version="1.1" xmlns:xlink="http://www.w3.org/1999/xlink" xmlns:svgjs="http://svgjs.com/svgjs" viewBox="0 0 640 400" data-background-color="#ffffff" preserveAspectRatio="xMidYMid meet" height="400" width="640"><rect width="640" height="400" x="0" y="0" opacity="1" fill="#ffffff" data-fill-palette-color="background" id="background"></rect><g id="tight-bounds" transform="matrix(1,0,0,1,122.24000000000001,183.0039610924227)"><svg viewBox="0 0 395.52 33.99207781515457" height="33.99207781515457" width="395.52"><g><svg viewBox="0 0 395.52 33.99207781515457" height="33.99207781515457" width="395.52"><g><svg viewBox="0 0 439.7714117118028 37.79516597842835" height="33.99207781515457" width="395.52"><g transform="matrix(1,0,0,1,0,5.223499784283513)"><svg viewBox="0 0 395.52 27.348166409861324" height="27.348166409861324" width="395.52"><g><svg viewBox="0 0 395.52 27.348166409861324" height="27.348166409861324" width="395.52"><g><svg viewBox="0 0 395.52 27.348166409861324" height="27.348166409861324" width="395.52"><g transform="matrix(1,0,0,1,0,0)"><svg width="395.52" viewBox="2.3 -35.2 519.1600000000001 35.900000000000006" height="27.348166409861324" data-palette-color="#323660"><path d="M17.2-35.2L17.2-35.2Q21.3-35.2 24.15-34.33 27-33.45 28.73-31.43 30.45-29.4 31.25-25.93 32.05-22.45 32.05-17.25L32.05-17.25Q32.05-12.05 31.25-8.58 30.45-5.1 28.73-3.08 27-1.05 24.15-0.18 21.3 0.7 17.2 0.7L17.2 0.7Q13.1 0.7 10.25-0.18 7.4-1.05 5.65-3.08 3.9-5.1 3.1-8.58 2.3-12.05 2.3-17.25L2.3-17.25Q2.3-22.45 3.1-25.93 3.9-29.4 5.65-31.43 7.4-33.45 10.25-34.33 13.1-35.2 17.2-35.2ZM17.2-29.15L17.2-29.15Q14.55-29.15 13.08-28.1 11.6-27.05 10.98-24.48 10.35-21.9 10.35-17.25L10.35-17.25Q10.35-12.65 10.98-10.05 11.6-7.45 13.08-6.4 14.55-5.35 17.2-5.35L17.2-5.35Q19.8-5.35 21.28-6.4 22.75-7.45 23.38-10.05 24-12.65 24-17.25L24-17.25Q24-21.9 23.38-24.48 22.75-27.05 21.28-28.1 19.8-29.15 17.2-29.15ZM45.15-34.5L52.8-34.5 52.8 0 45.15 0 45.15-34.5ZM34.8-34.5L63.2-34.5 63.2-28.5 34.8-28.5 34.8-34.5ZM75.25-34.5L82.9-34.5 82.9 0 75.25 0 75.25-34.5ZM64.89-34.5L93.3-34.5 93.3-28.5 64.89-28.5 64.89-34.5ZM103.94-34.5L111.19-34.5Q112.14-34.5 112.87-33.95 113.59-33.4 113.84-32.5L113.84-32.5 123.84 0 116.04 0 108.99-25.35Q108.79-26.2 108.59-27.08 108.39-27.95 108.24-28.75L108.24-28.75 106.89-28.75Q106.74-27.95 106.57-27.08 106.39-26.2 106.14-25.35L106.14-25.35 99.09 0 91.24 0 101.29-32.5Q101.54-33.4 102.27-33.95 102.99-34.5 103.94-34.5L103.94-34.5ZM98.59-14.85L116.49-14.85 116.49-9.1 98.59-9.1 98.59-14.85ZM162.64-34.5L170.34-34.5 164.69-2.1Q164.54-1.2 163.79-0.6 163.04 0 161.99 0L161.99 0 154.84 0Q153.84 0 153.07-0.6 152.29-1.2 152.14-2.15L152.14-2.15 148.29-24.6Q148.14-25.75 147.99-26.88 147.84-28 147.69-29.1L147.69-29.1 146.74-29.1Q146.64-28 146.49-26.85 146.34-25.7 146.19-24.6L146.19-24.6 142.34-2.15Q142.19-1.2 141.42-0.6 140.64 0 139.64 0L139.64 0 132.44 0Q131.44 0 130.67-0.6 129.89-1.2 129.74-2.1L129.74-2.1 124.09-34.5 131.79-34.5 135.39-10.5Q135.54-9.4 135.64-8.15 135.74-6.9 135.84-5.5L135.84-5.5 136.79-5.5Q136.99-6.7 137.22-8.03 137.44-9.35 137.59-10.5L137.59-10.5 141.39-32.15Q141.54-33.2 142.29-33.85 143.04-34.5 144.09-34.5L144.09-34.5 150.39-34.5Q151.44-34.5 152.17-33.85 152.89-33.2 153.04-32.15L153.04-32.15 156.89-10.45Q157.09-9.25 157.29-7.98 157.49-6.7 157.64-5.5L157.64-5.5 158.64-5.5Q158.74-6.7 158.87-8 158.99-9.3 159.09-10.4L159.09-10.4 162.64-34.5ZM183.29-34.5L190.54-34.5Q191.49-34.5 192.21-33.95 192.94-33.4 193.19-32.5L193.19-32.5 203.19 0 195.39 0 188.34-25.35Q188.14-26.2 187.94-27.08 187.74-27.95 187.59-28.75L187.59-28.75 186.24-28.75Q186.09-27.95 185.91-27.08 185.74-26.2 185.49-25.35L185.49-25.35 178.44 0 170.59 0 180.64-32.5Q180.89-33.4 181.61-33.95 182.34-34.5 183.29-34.5L183.29-34.5ZM177.94-14.85L195.84-14.85 195.84-9.1 177.94-9.1 177.94-14.85ZM229.63-35L229.63-35Q234.18-35 237.01-34.08 239.83-33.15 241.16-30.93 242.48-28.7 242.48-24.75L242.48-24.75Q242.48-22.35 241.86-20.53 241.23-18.7 239.78-17.6 238.33-16.5 235.83-16.2L235.83-16.2 235.83-15.95Q236.73-15.8 237.71-15.25 238.68-14.7 239.53-13.63 240.38-12.55 240.78-10.75L240.78-10.75 243.78 0 235.73 0 233.08-10.5Q232.63-12.2 231.76-12.85 230.88-13.5 229.33-13.5L229.33-13.5Q225.93-13.5 223.61-13.53 221.28-13.55 219.71-13.6 218.13-13.65 216.88-13.7L216.88-13.7 217.03-19.25 229.48-19.25Q231.48-19.25 232.66-19.68 233.83-20.1 234.31-21.2 234.78-22.3 234.78-24.25L234.78-24.25Q234.78-26.25 234.31-27.33 233.83-28.4 232.66-28.83 231.48-29.25 229.48-29.25L229.48-29.25Q224.78-29.25 221.53-29.2 218.28-29.15 217.08-29.05L217.08-29.05 216.33-34.5Q218.43-34.75 220.28-34.85 222.13-34.95 224.33-34.98 226.53-35 229.63-35ZM216.33-34.5L223.88-34.5 223.88 0 216.33 0 216.33-34.5ZM255.78-34.65L255.78-34.65Q258.58-34.65 261.43-34.63 264.28-34.6 267.03-34.5 269.78-34.4 272.18-34.15L272.18-34.15 271.83-28.6 258.58-28.6Q257.33-28.6 256.71-27.95 256.08-27.3 256.08-26.05L256.08-26.05 256.08-8.45Q256.08-7.2 256.71-6.55 257.33-5.9 258.58-5.9L258.58-5.9 271.83-5.9 272.18-0.35Q269.78-0.15 267.03-0.03 264.28 0.1 261.43 0.13 258.58 0.15 255.78 0.15L255.78 0.15Q252.48 0.15 250.46-1.78 248.43-3.7 248.43-6.8L248.43-6.8 248.43-27.7Q248.43-30.85 250.46-32.75 252.48-34.65 255.78-34.65ZM249.33-15.25L249.33-20.65 269.98-20.65 269.98-15.25 249.33-15.25ZM290.83-35L290.83-35Q295.68-35 298.43-34 301.18-33 302.35-30.55 303.53-28.1 303.53-23.7L303.53-23.7Q303.53-19.3 302.4-16.85 301.28-14.4 298.73-13.43 296.18-12.45 291.83-12.45L291.83-12.45Q289.53-12.45 287.33-12.65 285.13-12.85 283.23-13.15 281.33-13.45 279.98-13.78 278.63-14.1 278.13-14.4L278.13-14.4 278.28-18.2Q281.23-18.2 284.4-18.2 287.58-18.2 290.68-18.2L290.68-18.2Q292.68-18.25 293.8-18.7 294.93-19.15 295.4-20.35 295.88-21.55 295.88-23.7L295.88-23.7Q295.88-25.9 295.4-27.1 294.93-28.3 293.8-28.78 292.68-29.25 290.68-29.25L290.68-29.25Q286.08-29.25 282.78-29.2 279.48-29.15 278.33-29L278.33-29 277.58-34.5Q279.68-34.75 281.53-34.85 283.38-34.95 285.55-34.98 287.73-35 290.83-35ZM277.58-34.5L285.23-34.5 285.23 0 277.58 0 277.58-34.5ZM316.12-34.5L323.37-34.5Q324.32-34.5 325.05-33.95 325.77-33.4 326.02-32.5L326.02-32.5 336.02 0 328.22 0 321.17-25.35Q320.97-26.2 320.77-27.08 320.57-27.95 320.42-28.75L320.42-28.75 319.07-28.75Q318.92-27.95 318.75-27.08 318.57-26.2 318.32-25.35L318.32-25.35 311.27 0 303.42 0 313.47-32.5Q313.72-33.4 314.45-33.95 315.17-34.5 316.12-34.5L316.12-34.5ZM310.77-14.85L328.67-14.85 328.67-9.1 310.77-9.1 310.77-14.85ZM339.57-34.5L347.17-34.5 347.17 0 339.57 0 339.57-34.5ZM367.42-35L367.42-35Q371.97-35 374.79-34.08 377.62-33.15 378.94-30.93 380.27-28.7 380.27-24.75L380.27-24.75Q380.27-22.35 379.64-20.53 379.02-18.7 377.57-17.6 376.12-16.5 373.62-16.2L373.62-16.2 373.62-15.95Q374.52-15.8 375.49-15.25 376.47-14.7 377.32-13.63 378.17-12.55 378.57-10.75L378.57-10.75 381.57 0 373.52 0 370.87-10.5Q370.42-12.2 369.54-12.85 368.67-13.5 367.12-13.5L367.12-13.5Q363.72-13.5 361.39-13.53 359.07-13.55 357.49-13.6 355.92-13.65 354.67-13.7L354.67-13.7 354.82-19.25 367.27-19.25Q369.27-19.25 370.44-19.68 371.62-20.1 372.09-21.2 372.57-22.3 372.57-24.25L372.57-24.25Q372.57-26.25 372.09-27.33 371.62-28.4 370.44-28.83 369.27-29.25 367.27-29.25L367.27-29.25Q362.57-29.25 359.32-29.2 356.07-29.15 354.87-29.05L354.87-29.05 354.12-34.5Q356.22-34.75 358.07-34.85 359.92-34.95 362.12-34.98 364.32-35 367.42-35ZM354.12-34.5L361.67-34.5 361.67 0 354.12 0 354.12-34.5ZM408.67-35.15L408.67-35.15Q411.21-35.15 414.21-34.88 417.21-34.6 420.06-33.75L420.06-33.75 419.56-28.7Q417.37-28.75 414.42-28.8 411.46-28.85 408.62-28.85L408.62-28.85Q407.21-28.85 406.24-28.78 405.26-28.7 404.67-28.38 404.06-28.05 403.81-27.4 403.56-26.75 403.56-25.6L403.56-25.6Q403.56-23.85 404.39-23.05 405.21-22.25 407.21-21.6L407.21-21.6 413.87-19.45Q418.01-18.05 419.62-15.65 421.21-13.25 421.21-9.35L421.21-9.35Q421.21-6.4 420.51-4.45 419.81-2.5 418.31-1.4 416.81-0.3 414.37 0.18 411.92 0.65 408.37 0.65L408.37 0.65Q406.67 0.65 403.51 0.43 400.37 0.2 396.31-0.7L396.31-0.7 396.81-6.1Q399.76-6.05 401.94-5.98 404.12-5.9 405.67-5.88 407.21-5.85 408.37-5.85L408.37-5.85Q410.37-5.85 411.49-6.1 412.62-6.35 413.06-7.1 413.51-7.85 413.51-9.25L413.51-9.25Q413.51-10.45 413.19-11.18 412.87-11.9 412.14-12.33 411.42-12.75 410.17-13.1L410.17-13.1 403.17-15.5Q399.21-16.95 397.56-19.3 395.92-21.65 395.92-25.5L395.92-25.5Q395.92-28.5 396.64-30.38 397.37-32.25 398.89-33.3 400.42-34.35 402.84-34.75 405.26-35.15 408.67-35.15ZM426.61-34.5L434.26-34.5 434.26 0 426.61 0 426.61-34.5ZM433.86-21.25L447.06-21.25 447.06-15.5 433.86-15.5 433.86-21.25ZM446.51-34.5L454.16-34.5 454.16 0 446.51 0 446.51-34.5ZM474.86-35.2L474.86-35.2Q478.96-35.2 481.81-34.33 484.66-33.45 486.39-31.43 488.11-29.4 488.91-25.93 489.71-22.45 489.71-17.25L489.71-17.25Q489.71-12.05 488.91-8.58 488.11-5.1 486.39-3.08 484.66-1.05 481.81-0.18 478.96 0.7 474.86 0.7L474.86 0.7Q470.76 0.7 467.91-0.18 465.06-1.05 463.31-3.08 461.56-5.1 460.76-8.58 459.96-12.05 459.96-17.25L459.96-17.25Q459.96-22.45 460.76-25.93 461.56-29.4 463.31-31.43 465.06-33.45 467.91-34.33 470.76-35.2 474.86-35.2ZM474.86-29.15L474.86-29.15Q472.21-29.15 470.74-28.1 469.26-27.05 468.64-24.48 468.01-21.9 468.01-17.25L468.01-17.25Q468.01-12.65 468.64-10.05 469.26-7.45 470.74-6.4 472.21-5.35 474.86-5.35L474.86-5.35Q477.46-5.35 478.94-6.4 480.41-7.45 481.04-10.05 481.66-12.65 481.66-17.25L481.66-17.25Q481.66-21.9 481.04-24.48 480.41-27.05 478.94-28.1 477.46-29.15 474.86-29.15ZM508.76-35L508.76-35Q513.61-35 516.36-34 519.11-33 520.28-30.55 521.46-28.1 521.46-23.7L521.46-23.7Q521.46-19.3 520.33-16.85 519.21-14.4 516.66-13.43 514.11-12.45 509.76-12.45L509.76-12.45Q507.46-12.45 505.26-12.65 503.06-12.85 501.16-13.15 499.26-13.45 497.91-13.78 496.56-14.1 496.06-14.4L496.06-14.4 496.21-18.2Q499.16-18.2 502.33-18.2 505.51-18.2 508.61-18.2L508.61-18.2Q510.61-18.25 511.73-18.7 512.86-19.15 513.33-20.35 513.81-21.55 513.81-23.7L513.81-23.7Q513.81-25.9 513.33-27.1 512.86-28.3 511.73-28.78 510.61-29.25 508.61-29.25L508.61-29.25Q504.01-29.25 500.71-29.2 497.41-29.15 496.26-29L496.26-29 495.51-34.5Q497.61-34.75 499.46-34.85 501.31-34.95 503.48-34.98 505.66-35 508.76-35ZM495.51-34.5L503.16-34.5 503.16 0 495.51 0 495.51-34.5Z" opacity="1" transform="matrix(1,0,0,1,0,0)" fill="#323660" class="undefined-text-0" data-fill-palette-color="primary" id="text-0"></path></svg></g></svg></g></svg></g></svg></g><g transform="matrix(1,0,0,1,401.9762457333744,0)"><svg viewBox="0 0 37.79516597842835 37.79516597842835" height="37.79516597842835" width="37.79516597842835"><g data-palette-color="#fc2222"><rect width="10.330678700770415" height="37.79516597842835" fill="#fc2222" stroke="transparent" data-fill-palette-color="accent" x="0" fill-opacity="1"></rect><rect width="10.330678700770415" height="37.79516597842835" fill="#fc2222" stroke="transparent" data-fill-palette-color="accent" x="12.598388659476116" fill-opacity="0.75"></rect><rect width="10.330678700770415" height="37.79516597842835" fill="#fc2222" stroke="transparent" data-fill-palette-color="accent" x="25.196777318952233" fill-opacity="0.5"></rect></g></svg></g></svg></g></svg></g></svg><rect width="395.52" height="33.99207781515457" fill="transparent" stroke="transparent"></rect></g><defs></defs></svg>